<svg width="150" height="150" viewBox="0 0 150 150" fill="none" xmlns="http://www.w3.org/2000/svg">
<g filter="url(#filter0_d_37_2)">
<path d="M29.9936 34.0909H40.4425L49.3061 55.7045H49.7152L58.5788 34.0909H69.0277V69H60.8118V47.5568H60.522L52.1357 68.7784H46.8857L38.4993 47.4375H38.2095V69H29.9936V34.0909Z" fill="white"/>
</g>
<g filter="url(#filter1_d_37_2)">
<path d="M76.9602 69.1648C76.0473 69.1648 75.2595 68.9848 74.5966 68.625C73.9375 68.2614 73.4299 67.7443 73.0739 67.0739C72.7216 66.3996 72.5455 65.5985 72.5455 64.6705C72.5455 63.7689 72.7235 62.9811 73.0795 62.3068C73.4356 61.6288 73.9375 61.1023 74.5852 60.7273C75.233 60.3485 75.9962 60.1591 76.875 60.1591C77.4962 60.1591 78.0644 60.2557 78.5795 60.4489C79.0947 60.642 79.5398 60.928 79.9148 61.3068C80.2898 61.6856 80.5814 62.1534 80.7898 62.7102C80.9981 63.2633 81.1023 63.8977 81.1023 64.6136V65.3068H73.517V63.6932H78.517C78.5133 63.3977 78.4432 63.1345 78.3068 62.9034C78.1705 62.6723 77.983 62.4924 77.7443 62.3636C77.5095 62.2311 77.2386 62.1648 76.9318 62.1648C76.6212 62.1648 76.3428 62.2348 76.0966 62.375C75.8504 62.5114 75.6553 62.6989 75.5114 62.9375C75.3674 63.1723 75.2917 63.4394 75.2841 63.7386V65.3807C75.2841 65.7367 75.3542 66.0492 75.4943 66.3182C75.6345 66.5833 75.8333 66.7898 76.0909 66.9375C76.3485 67.0852 76.6553 67.1591 77.0114 67.1591C77.2576 67.1591 77.4811 67.125 77.6818 67.0568C77.8826 66.9886 78.0549 66.8883 78.1989 66.7557C78.3428 66.6231 78.4508 66.4602 78.5227 66.267L81.0739 66.3409C80.9678 66.9129 80.7348 67.411 80.375 67.8352C80.0189 68.2557 79.5511 68.5833 78.9716 68.8182C78.392 69.0492 77.7216 69.1648 76.9602 69.1648ZM85.7088 69.125C85.0649 69.125 84.4796 68.9583 83.9531 68.625C83.4266 68.2917 83.0062 67.7917 82.6918 67.125C82.3774 66.4583 82.2202 65.6307 82.2202 64.642C82.2202 63.6155 82.383 62.7708 82.7088 62.108C83.0346 61.4451 83.4607 60.9545 83.9872 60.6364C84.5175 60.3182 85.0876 60.1591 85.6974 60.1591C86.1558 60.1591 86.5478 60.2386 86.8736 60.3977C87.1993 60.553 87.4683 60.7538 87.6804 61C87.8925 61.2462 88.0535 61.5019 88.1634 61.767H88.2202V57.3636H90.9986V69H88.2486V67.5852H88.1634C88.0459 67.8542 87.8793 68.1061 87.6634 68.3409C87.4474 68.5758 87.1766 68.7652 86.8509 68.9091C86.5289 69.053 86.1482 69.125 85.7088 69.125ZM86.6747 66.9602C87.0118 66.9602 87.2997 66.8655 87.5384 66.6761C87.777 66.483 87.9607 66.2121 88.0895 65.8636C88.2183 65.5152 88.2827 65.1061 88.2827 64.6364C88.2827 64.1591 88.2183 63.7481 88.0895 63.4034C87.9645 63.0587 87.7808 62.7936 87.5384 62.608C87.2997 62.4223 87.0118 62.3295 86.6747 62.3295C86.33 62.3295 86.0384 62.4242 85.7997 62.6136C85.5611 62.803 85.3793 63.0701 85.2543 63.4148C85.133 63.7595 85.0724 64.1667 85.0724 64.6364C85.0724 65.1061 85.1349 65.5152 85.2599 65.8636C85.3849 66.2121 85.5649 66.483 85.7997 66.6761C86.0384 66.8655 86.33 66.9602 86.6747 66.9602Z" fill="white"/>
</g>
<g filter="url(#filter2_d_37_2)">
<path d="M87.8807 116V107.273H90.6591V116H87.8807ZM89.2727 106.256C88.8826 106.256 88.5473 106.127 88.267 105.869C87.9867 105.608 87.8466 105.294 87.8466 104.926C87.8466 104.562 87.9867 104.252 88.267 103.994C88.5473 103.733 88.8826 103.602 89.2727 103.602C89.6667 103.602 90.0019 103.733 90.2784 103.994C90.5587 104.252 90.6989 104.562 90.6989 104.926C90.6989 105.294 90.5587 105.608 90.2784 105.869C90.0019 106.127 89.6667 106.256 89.2727 106.256ZM94.8878 116.148C94.331 116.148 93.8366 116.055 93.4048 115.869C92.9768 115.68 92.6378 115.396 92.3878 115.017C92.1416 114.634 92.0185 114.155 92.0185 113.58C92.0185 113.095 92.1037 112.686 92.2741 112.352C92.4446 112.019 92.6795 111.748 92.9787 111.54C93.2779 111.331 93.6226 111.174 94.0128 111.068C94.4029 110.958 94.8196 110.884 95.2628 110.847C95.759 110.801 96.1586 110.754 96.4616 110.705C96.7647 110.652 96.9844 110.578 97.1207 110.483C97.2609 110.384 97.331 110.246 97.331 110.068V110.04C97.331 109.748 97.2306 109.523 97.0298 109.364C96.8291 109.205 96.5582 109.125 96.2173 109.125C95.8499 109.125 95.5545 109.205 95.331 109.364C95.1075 109.523 94.9654 109.742 94.9048 110.023L92.3423 109.932C92.4181 109.402 92.6132 108.928 92.9276 108.511C93.2457 108.091 93.6813 107.761 94.2344 107.523C94.7912 107.28 95.4598 107.159 96.2401 107.159C96.7969 107.159 97.3101 107.225 97.7798 107.358C98.2495 107.487 98.6586 107.676 99.0071 107.926C99.3556 108.172 99.6245 108.475 99.8139 108.835C100.007 109.195 100.104 109.606 100.104 110.068V116H97.4901V114.784H97.4219C97.2666 115.08 97.0677 115.33 96.8253 115.534C96.5866 115.739 96.3045 115.892 95.9787 115.994C95.6567 116.097 95.2931 116.148 94.8878 116.148ZM95.7457 114.33C96.045 114.33 96.3139 114.269 96.5526 114.148C96.795 114.027 96.9882 113.86 97.1321 113.648C97.276 113.432 97.348 113.182 97.348 112.898V112.068C97.2685 112.11 97.1719 112.148 97.0582 112.182C96.9484 112.216 96.8272 112.248 96.6946 112.278C96.562 112.309 96.4257 112.335 96.2855 112.358C96.1454 112.381 96.0109 112.402 95.8821 112.42C95.6207 112.462 95.3973 112.527 95.2116 112.614C95.0298 112.701 94.8897 112.814 94.7912 112.955C94.6965 113.091 94.6491 113.254 94.6491 113.443C94.6491 113.731 94.7514 113.951 94.956 114.102C95.1643 114.254 95.4276 114.33 95.7457 114.33ZM101.803 116V107.273H104.501V108.864H104.592C104.751 108.288 105.011 107.86 105.371 107.58C105.731 107.295 106.149 107.153 106.626 107.153C106.755 107.153 106.888 107.163 107.024 107.182C107.161 107.197 107.287 107.222 107.405 107.256V109.67C107.272 109.625 107.098 109.589 106.882 109.562C106.67 109.536 106.481 109.523 106.314 109.523C105.984 109.523 105.687 109.597 105.422 109.744C105.161 109.888 104.954 110.091 104.803 110.352C104.655 110.61 104.581 110.913 104.581 111.261V116H101.803ZM110.501 119.273C110.168 119.273 109.854 119.246 109.558 119.193C109.263 119.144 109.009 119.078 108.797 118.994L109.411 116.977C109.683 117.068 109.929 117.121 110.149 117.136C110.373 117.152 110.564 117.116 110.723 117.028C110.886 116.945 111.011 116.795 111.098 116.58L111.206 116.318L108.104 107.273H111.013L112.621 113.5H112.712L114.342 107.273H117.268L113.979 116.835C113.82 117.313 113.594 117.733 113.303 118.097C113.015 118.464 112.642 118.752 112.183 118.96C111.729 119.169 111.168 119.273 110.501 119.273Z" fill="white"/>
</g>
<g filter="url(#filter3_d_37_2)">
<path d="M66.5142 116H53.6108V81.0909H66.4972C70.054 81.0909 73.1165 81.7898 75.6847 83.1875C78.2642 84.5739 80.2528 86.5739 81.6506 89.1875C83.0483 91.7898 83.7472 94.9034 83.7472 98.5284C83.7472 102.165 83.0483 105.29 81.6506 107.903C80.2642 110.517 78.2812 112.523 75.7017 113.92C73.1222 115.307 70.0597 116 66.5142 116ZM62.0483 108.807H66.1903C68.1449 108.807 69.7983 108.477 71.1506 107.818C72.5142 107.148 73.5426 106.062 74.2358 104.562C74.9403 103.051 75.2926 101.04 75.2926 98.5284C75.2926 96.017 74.9403 94.017 74.2358 92.5284C73.5313 91.0284 72.4915 89.9489 71.1165 89.2898C69.7528 88.6193 68.071 88.2841 66.071 88.2841H62.0483V108.807Z" fill="white"/>
</g>
<defs>
<filter id="filter0_d_37_2" x="25.9936" y="34.0909" width="47.0341" height="42.9091" filterUnits="userSpaceOnUse" color-interpolation-filters="sRGB">
<feFlood flood-opacity="0" result="BackgroundImageFix"/>
<feColorMatrix in="SourceAlpha" type="matrix" values="0 0 0 0 0 0 0 0 0 0 0 0 0 0 0 0 0 0 127 0" result="hardAlpha"/>
<feOffset dy="4"/>
<feGaussianBlur stdDeviation="2"/>
<feComposite in2="hardAlpha" operator="out"/>
<feColorMatrix type="matrix" values="0 0 0 0 0 0 0 0 0 0 0 0 0 0 0 0 0 0 0.25 0"/>
<feBlend mode="normal" in2="BackgroundImageFix" result="effect1_dropShadow_37_2"/>
<feBlend mode="normal" in="SourceGraphic" in2="effect1_dropShadow_37_2" result="shape"/>
</filter>
<filter id="filter1_d_37_2" x="68.5455" y="57.3636" width="26.4531" height="19.8011" filterUnits="userSpaceOnUse" color-interpolation-filters="sRGB">
<feFlood flood-opacity="0" result="BackgroundImageFix"/>
<feColorMatrix in="SourceAlpha" type="matrix" values="0 0 0 0 0 0 0 0 0 0 0 0 0 0 0 0 0 0 127 0" result="hardAlpha"/>
<feOffset dy="4"/>
<feGaussianBlur stdDeviation="2"/>
<feComposite in2="hardAlpha" operator="out"/>
<feColorMatrix type="matrix" values="0 0 0 0 0 0 0 0 0 0 0 0 0 0 0 0 0 0 0.25 0"/>
<feBlend mode="normal" in2="BackgroundImageFix" result="effect1_dropShadow_37_2"/>
<feBlend mode="normal" in="SourceGraphic" in2="effect1_dropShadow_37_2" result="shape"/>
</filter>
<filter id="filter2_d_37_2" x="83.8466" y="103.602" width="37.4219" height="23.6705" filterUnits="userSpaceOnUse" color-interpolation-filters="sRGB">
<feFlood flood-opacity="0" result="BackgroundImageFix"/>
<feColorMatrix in="SourceAlpha" type="matrix" values="0 0 0 0 0 0 0 0 0 0 0 0 0 0 0 0 0 0 127 0" result="hardAlpha"/>
<feOffset dy="4"/>
<feGaussianBlur stdDeviation="2"/>
<feComposite in2="hardAlpha" operator="out"/>
<feColorMatrix type="matrix" values="0 0 0 0 0 0 0 0 0 0 0 0 0 0 0 0 0 0 0.25 0"/>
<feBlend mode="normal" in2="BackgroundImageFix" result="effect1_dropShadow_37_2"/>
<feBlend mode="normal" in="SourceGraphic" in2="effect1_dropShadow_37_2" result="shape"/>
</filter>
<filter id="filter3_d_37_2" x="49.6108" y="81.0909" width="38.1364" height="42.9091" filterUnits="userSpaceOnUse" color-interpolation-filters="sRGB">
<feFlood flood-opacity="0" result="BackgroundImageFix"/>
<feColorMatrix in="SourceAlpha" type="matrix" values="0 0 0 0 0 0 0 0 0 0 0 0 0 0 0 0 0 0 127 0" result="hardAlpha"/>
<feOffset dy="4"/>
<feGaussianBlur stdDeviation="2"/>
<feComposite in2="hardAlpha" operator="out"/>
<feColorMatrix type="matrix" values="0 0 0 0 0 0 0 0 0 0 0 0 0 0 0 0 0 0 0.25 0"/>
<feBlend mode="normal" in2="BackgroundImageFix" result="effect1_dropShadow_37_2"/>
<feBlend mode="normal" in="SourceGraphic" in2="effect1_dropShadow_37_2" result="shape"/>
</filter>
</defs>
</svg>
